<svg width="270" height="695" viewBox="0 0 270 695" fill="none" xmlns="http://www.w3.org/2000/svg">
<path d="M269.5 347.5C269.5 443.414 254.396 530.224 229.993 593.039C217.791 624.447 203.274 649.831 187.18 667.354C171.086 684.876 153.452 694.5 135 694.5C116.548 694.5 98.9143 684.876 82.8202 667.354C66.7256 649.831 52.2086 624.447 40.0066 593.039C15.6041 530.224 0.5 443.414 0.5 347.5C0.5 251.586 15.6041 164.776 40.0066 101.961C52.2086 70.5528 66.7256 45.1693 82.8202 27.6465C98.9143 10.1241 116.548 0.5 135 0.5C153.452 0.5 171.086 10.1241 187.18 27.6465C203.274 45.1693 217.791 70.5528 229.993 101.961C254.396 164.776 269.5 251.586 269.5 347.5Z" stroke="white"/>
</svg>
